<svg width="33" height="33" viewBox="0 0 33 33" fill="none" xmlns="http://www.w3.org/2000/svg">
<g clip-path="url(#clip0_14_43)">
<path d="M10.0547 3.60939V4.89845H6.66445C3.78984 4.89845 3.21621 4.91134 2.88105 5.00158C1.54687 5.34318 0.444721 6.44533 0.0966742 7.7795C-0.051568 8.34025 -0.0451226 14.3408 0.10312 14.908C0.444721 16.2358 1.55331 17.3443 2.8746 17.686C3.15175 17.7568 3.56425 17.7891 4.21523 17.7891H5.15624V19.0781V20.3672H2.57812H-5.45662e-06V24.2344V28.1016H1.37285H2.73925L2.99062 28.6043C3.46757 29.5324 4.44081 30.3188 5.45273 30.583C5.93613 30.7055 6.95449 30.7055 7.43789 30.583C8.4498 30.3188 9.42304 29.5324 9.89999 28.6043L10.1514 28.1016H16.5H22.8486L23.1 28.6043C23.5769 29.5324 24.5502 30.3188 25.5621 30.583C26.0455 30.7055 27.0639 30.7055 27.5473 30.583C28.5592 30.3188 29.5324 29.5324 30.0094 28.6043L30.2607 28.1016H31.6336H33V23.3965V18.6914L31.4853 15.6621L29.9707 12.6328H26.3291H22.6875V10.4027C22.6875 7.91486 22.6682 7.75372 22.2557 6.93517C21.9463 6.31642 21.2695 5.63966 20.6508 5.33029C19.7935 4.89845 19.7935 4.89845 16.023 4.89845H12.6328V3.60939V2.32033H11.3437H10.0547V3.60939ZM5.15624 11.3502V15.2303L4.36992 15.1981C3.35156 15.1594 3.04218 15.024 2.7457 14.4697C2.61035 14.2184 2.61035 14.1539 2.61035 11.3438C2.61035 8.66251 2.61679 8.46271 2.73281 8.25001C3.05507 7.64415 3.39023 7.49591 4.53105 7.48302L5.15624 7.47658V11.3502ZM14.9531 11.3438V15.2109H11.3437H7.73437V11.3438V7.47658H11.3437H14.9531V11.3438ZM19.3359 7.63771C19.6518 7.79239 19.7807 7.9213 19.9418 8.21779C20.0771 8.46915 20.0771 8.53361 20.0771 11.3438C20.0771 14.1539 20.0771 14.2184 19.9418 14.4697C19.6453 15.024 19.3359 15.1594 18.324 15.1981L17.5312 15.2303V11.3438V7.45724L18.324 7.48947C18.9041 7.51525 19.1684 7.54747 19.3359 7.63771ZM28.9394 16.5L29.584 17.7891H26.1357H22.6875V16.5V15.2109H25.4912H28.2949L28.9394 16.5ZM20.1094 18.9815V20.3672H18.8203H17.5312V19.0781V17.7891L18.5174 17.7826C19.323 17.7826 19.8773 17.7182 20.0965 17.6022C20.1029 17.6022 20.1094 18.2209 20.1094 18.9815ZM14.9531 19.0781V20.3672H11.3437H7.73437V19.0781V17.7891H11.3437H14.9531V19.0781ZM30.4219 22.9453C30.4219 24.9627 30.4025 25.5234 30.3445 25.5234C30.2994 25.5234 30.1447 25.3043 30.0094 25.0336C29.5646 24.1699 28.8041 23.4932 27.876 23.1387C27.399 22.9582 26.2711 22.8873 25.6975 23.0098C24.6598 23.2225 23.5318 24.1055 23.0807 25.0594C22.9582 25.3108 22.8164 25.5234 22.7713 25.5234C22.7068 25.5234 22.6875 25.0272 22.6875 22.9453V20.3672H26.5547H30.4219V22.9453ZM5.4205 23.0484C4.42792 23.3127 3.39667 24.1635 2.97128 25.0594C2.61679 25.8006 2.57812 25.7233 2.57812 24.2344V22.9453L4.17656 22.9518C5.68476 22.9518 5.74921 22.9582 5.4205 23.0484ZM20.1094 24.2344V25.5234H15.1336H10.1514L9.89999 25.0336C9.37792 24.0152 8.35312 23.2225 7.25097 22.9904C7.18007 22.9711 10.0418 22.9582 13.6189 22.9518L20.1094 22.9453V24.2344ZM7.01249 25.7104C7.44433 25.9295 7.66992 26.3098 7.66992 26.8125C7.66992 27.5279 7.16074 28.0371 6.44531 28.0371C5.72988 28.0371 5.2207 27.5279 5.2207 26.8125C5.2207 26.0971 5.71699 25.5943 6.43242 25.5879C6.64511 25.5879 6.86425 25.633 7.01249 25.7104ZM27.1219 25.7104C27.5537 25.9295 27.7793 26.3098 27.7793 26.8125C27.7793 27.5279 27.2701 28.0371 26.5547 28.0371C25.8393 28.0371 25.3301 27.5279 25.3301 26.8125C25.3301 26.0971 25.8264 25.5943 26.5418 25.5879C26.7545 25.5879 26.9736 25.633 27.1219 25.7104Z" fill="white"/>
</g>
<defs>
<clipPath id="clip0_14_43">
<rect width="33" height="33" fill="white"/>
</clipPath>
</defs>
</svg>
