<svg width="33" height="33" viewBox="0 0 33 33" fill="none" xmlns="http://www.w3.org/2000/svg">
<g clip-path="url(#clip0_14_78)">
<path d="M14.7404 0.103125C10.6541 0.734766 7.24453 3.4418 5.7041 7.2832C5.3625 8.13398 5.07246 9.24258 4.96289 10.1449C4.84687 11.0666 4.91132 13.0646 5.09179 13.8896C5.9748 18.0404 8.8623 21.3082 12.8004 22.6166C14.2377 23.1 14.7082 23.1645 16.5 23.1645C18.2918 23.1645 18.7623 23.1 20.1996 22.6166C23.6672 21.4629 26.3613 18.7687 27.515 15.3012C27.934 14.0508 28.0436 13.4127 28.0822 12.0076C28.1209 10.5896 28.0564 9.88711 27.7664 8.74629C26.6256 4.18301 22.8809 0.799219 18.1887 0.0966797C17.4088 -0.0257816 15.5139 -0.0193348 14.7404 0.103125ZM17.9309 2.73926C19.2006 2.93262 20.5734 3.49981 21.7143 4.30547C22.391 4.78887 23.4287 5.83301 23.8928 6.51621C24.6018 7.55391 25.1561 8.91387 25.3559 10.1127C25.4912 10.899 25.4912 12.3041 25.3559 13.0904C25.1561 14.2893 24.6018 15.6492 23.8928 16.6869C23.4287 17.3701 22.391 18.4143 21.7143 18.8977C19.3617 20.5605 16.4098 21.0182 13.735 20.1352C12.3814 19.684 11.318 19.0395 10.2674 18.0211C8.88164 16.6869 7.95351 14.9402 7.64414 13.0904C7.50879 12.3041 7.50879 10.899 7.64414 10.1127C7.84394 8.91387 8.39824 7.55391 9.10722 6.51621C9.57773 5.83301 10.609 4.78887 11.2857 4.30547C13.2709 2.90684 15.501 2.37832 17.9309 2.73926Z" fill="white"/>
<path d="M17.7762 9.71309L15.2109 12.2783L13.9219 10.9893L12.6328 9.7002L11.6854 10.6541L10.7314 11.6016L12.9744 13.8381L15.2109 16.0811L18.7365 12.5555L22.2686 9.02344L21.334 8.08887C20.8184 7.57324 20.3865 7.1543 20.3672 7.1543C20.3479 7.1543 19.1812 8.30801 17.7762 9.71309Z" fill="white"/>
<path d="M4.6535 20.0643C4.55038 20.1867 0.0515477 27.341 0.0193211 27.4377C-0.00646013 27.5021 0.560727 27.5215 3.05506 27.5344L6.12948 27.5537L7.31541 30.2607C7.96639 31.7496 8.52713 32.9678 8.56581 32.9678C8.63026 32.9678 13.4062 25.7555 13.4062 25.6523C13.4062 25.5943 11.3373 24.2344 11.2406 24.2344C11.2084 24.2344 10.7056 24.9627 10.1256 25.8457C9.54549 26.7352 9.0492 27.457 9.02987 27.457C9.01053 27.457 8.73983 26.8834 8.43045 26.1809L7.86971 24.9111L6.32284 24.8789L4.77596 24.8467L5.83299 23.1709C6.41952 22.2492 6.89647 21.4629 6.89647 21.4242C6.89647 21.3791 6.63866 21.1857 6.32284 20.9924C6.00702 20.7926 5.51717 20.4896 5.23358 20.3092C4.84686 20.0707 4.69862 20.0062 4.6535 20.0643Z" fill="white"/>
<path d="M27.1992 20.6637C26.6127 21.0311 26.1293 21.3662 26.1229 21.4113C26.11 21.4564 26.5805 22.2492 27.167 23.1709L28.224 24.8467L26.6771 24.8789L25.1238 24.9111L24.5695 26.1809C24.2666 26.8834 23.9959 27.457 23.9701 27.457C23.9508 27.457 23.4545 26.7352 22.8744 25.8457C22.2943 24.9627 21.7916 24.2344 21.7594 24.2344C21.6691 24.2344 19.5938 25.5943 19.5938 25.6523C19.5938 25.749 24.3762 32.9678 24.4406 32.9678C24.4729 32.9678 25.0336 31.7496 25.6846 30.2607L26.8705 27.5537L29.9449 27.5344C32.4844 27.5215 33.0064 27.5021 32.9807 27.4312C32.9291 27.3023 28.4238 20.1545 28.34 20.0707C28.282 20.0127 27.9984 20.1609 27.1992 20.6637Z" fill="white"/>
</g>
<defs>
<clipPath id="clip0_14_78">
<rect width="33" height="33" fill="white"/>
</clipPath>
</defs>
</svg>
