<svg width="33" height="33" viewBox="0 0 33 33" fill="none" xmlns="http://www.w3.org/2000/svg">
<path d="M2.57812 12.085V22.2363L1.28906 25.3301L0 28.4238V29.7451V31.0664H16.5H33V29.7387V28.4109L31.7109 25.3172L30.4219 22.2234V12.0785V1.93359H16.5H2.57812V12.085ZM27.8438 12.9551V21.334H16.5H5.15625V12.9551V4.57617H16.5H27.8438V12.9551ZM29.1521 26.0842C29.6355 27.2508 30.048 28.2498 30.0738 28.3078C30.1125 28.4174 29.8547 28.4238 25.2398 28.4238H20.3672V27.8115V27.1992H16.5H12.6328V27.8115V28.4238H7.76016C3.39668 28.4238 2.8875 28.4109 2.92617 28.3271C2.94551 28.2691 3.35801 27.2701 3.84785 26.1035L4.73086 23.9766H16.5H28.2756L29.1521 26.0842Z" fill="white"/>
<path d="M11.7563 7.73438C11.1246 8.47559 10.5832 9.08789 10.551 9.08789C10.5252 9.08789 10.1836 8.78496 9.78399 8.41113C9.39083 8.0373 9.03634 7.73438 8.99766 7.73438C8.93321 7.73438 7.27032 9.4875 7.23165 9.59707C7.21231 9.65508 10.6799 12.9229 10.7637 12.9229C10.8088 12.9229 14.8049 8.31445 14.9145 8.12754C14.9402 8.08242 13.0131 6.38086 12.9422 6.38086C12.9229 6.38086 12.3943 6.98672 11.7563 7.73438Z" fill="white"/>
<path d="M16.6289 9.63574V10.957H20.9473H25.2656V9.63574V8.31445H20.9473H16.6289V9.63574Z" fill="white"/>
<path d="M11.7563 14.9531C11.1246 15.6943 10.5832 16.3066 10.551 16.3066C10.5252 16.3066 10.1836 16.0037 9.78399 15.6299C9.39083 15.2561 9.03634 14.9531 8.99766 14.9531C8.93321 14.9531 7.27032 16.7062 7.23165 16.8158C7.21231 16.8738 10.6799 20.1416 10.7637 20.1416C10.8088 20.1416 14.8049 15.5332 14.9145 15.3463C14.9402 15.3012 13.0131 13.5996 12.9422 13.5996C12.9229 13.5996 12.3943 14.2055 11.7563 14.9531Z" fill="white"/>
<path d="M16.6289 16.79V18.1113H20.9473H25.2656V16.79V15.4688H20.9473H16.6289V16.79Z" fill="white"/>
</svg>
