<svg width="33" height="33" viewBox="0 0 33 33" fill="none" xmlns="http://www.w3.org/2000/svg">
<g clip-path="url(#clip0_14_70)">
<path d="M2.80371 0.122458C1.5082 0.48984 0.431832 1.59199 0.103121 2.87461C0.0128868 3.2291 -3.86091e-06 4.20878 -3.86091e-06 11.6144C-3.86091e-06 20.7861 -0.0257851 20.2447 0.399606 21.1213C0.689645 21.7207 1.48242 22.5135 2.08183 22.8035C3.02285 23.2547 2.59101 23.2289 9.46172 23.2547L15.6621 23.274V21.9527V20.625L9.62285 20.6121C3.86074 20.5928 3.56425 20.5863 3.35156 20.4703C3.03574 20.3027 2.90683 20.1803 2.7457 19.8838L2.61035 19.626V11.6016V3.57714L2.79082 3.27421C2.90039 3.0873 3.07441 2.90683 3.24843 2.80371L3.52558 2.64257H13.9219H24.3182L24.5953 2.80371C24.7693 2.90683 24.9434 3.0873 25.0529 3.27421L25.2334 3.57714L25.2527 5.07246L25.2785 6.57421H26.5611H27.8437V4.92421C27.8437 3.06796 27.8051 2.79726 27.4055 2.03027C27.0961 1.43085 26.4129 0.747652 25.8135 0.438276C24.9047 -0.0322304 25.7619 -3.8147e-06 13.8832 0.00644112C3.95097 0.00644112 3.16464 0.019331 2.80371 0.122458Z" fill="white"/>
<path d="M5.15625 6.47754V7.79883H13.9219H22.6875V6.47754V5.15625H13.9219H5.15625V6.47754Z" fill="white"/>
<path d="M23.8605 9.12012C21.6756 9.51328 19.7355 10.8797 18.5431 12.8648C17.4152 14.7404 17.2025 17.4346 18.0146 19.5422C18.4078 20.5541 19.0588 21.5596 19.7806 22.2686L20.1093 22.5844V27.7922C20.1093 30.6539 20.1222 33 20.1416 33C20.1609 33 21.3082 32.2459 22.6875 31.3242C24.0668 30.4025 25.2269 29.6484 25.2656 29.6484C25.3043 29.6484 26.4644 30.4025 27.8437 31.3242C29.223 32.2459 30.3703 33 30.3896 33C30.4089 33 30.4218 30.6539 30.4218 27.7922V22.5844L30.7506 22.2686C32.1879 20.857 33 18.8912 33 16.8029C33 14.5922 32.2716 12.8068 30.7441 11.2793C29.584 10.1191 28.1918 9.39082 26.6256 9.12012C25.9617 9.0041 24.505 9.0041 23.8605 9.12012ZM26.4644 11.7949C28.7654 12.3814 30.3574 14.4053 30.3574 16.7385C30.3574 17.5635 30.2285 18.1693 29.9062 18.8654C29.5968 19.5229 29.339 19.9031 28.875 20.3672C27.4119 21.8303 25.1947 22.2814 23.3191 21.4887C21.3984 20.683 20.1738 18.8461 20.1738 16.7707C20.1738 15.9328 20.3027 15.3398 20.6507 14.5986C21.3017 13.2129 22.5457 12.1881 24.041 11.8014C24.7177 11.6209 25.7812 11.6209 26.4644 11.7949ZM23.4545 24.3117C24.6082 24.5824 26.0455 24.5695 27.1992 24.273C27.5343 24.1893 27.8179 24.1248 27.8308 24.1377C27.8373 24.1441 27.8373 25.04 27.8308 26.1229L27.8115 28.1016L26.5353 27.2508L25.2656 26.4064L24.1506 27.1477C23.5447 27.5537 22.9646 27.9404 22.8679 27.9984L22.6875 28.1145V26.1035C22.6875 24.215 22.6939 24.0926 22.8035 24.1377C22.8615 24.157 23.158 24.2344 23.4545 24.3117Z" fill="white"/>
<path d="M24.6275 15.6106C24.2021 15.8168 23.9766 16.2164 23.9766 16.7514C23.9766 17.0801 24.0088 17.2219 24.1377 17.441C24.6275 18.2725 25.9037 18.2725 26.3936 17.441C26.632 17.0285 26.6256 16.442 26.3678 16.0359C26.0262 15.4945 25.2463 15.3012 24.6275 15.6106Z" fill="white"/>
<path d="M5.15625 11.6338V12.9551H10.0547H14.9531V11.6338V10.3125H10.0547H5.15625V11.6338Z" fill="white"/>
<path d="M5.15625 16.79V18.1113H10.0547H14.9531V16.79V15.4688H10.0547H5.15625V16.79Z" fill="white"/>
</g>
<defs>
<clipPath id="clip0_14_70">
<rect width="33" height="33" fill="white"/>
</clipPath>
</defs>
</svg>
