<svg width="33" height="32" viewBox="0 0 33 32" fill="none" xmlns="http://www.w3.org/2000/svg">
<g clip-path="url(#clip0_14_53)">
<path d="M14.4375 0.09375C11.5758 0.4375 8.94609 1.46875 6.57422 3.175C5.60742 3.875 3.99609 5.4375 3.27422 6.375C1.49531 8.7 0.444727 11.2437 0.0902344 14.0625C-0.0193359 14.9875 -0.0193359 17.0125 0.0902344 17.9375C0.444727 20.7562 1.49531 23.3 3.27422 25.625C3.99609 26.5625 5.60742 28.125 6.57422 28.825C8.97188 30.55 11.5951 31.5687 14.502 31.9125C15.4559 32.0188 17.5441 32.0188 18.498 31.9125C21.4049 31.5687 24.0281 30.55 26.4258 28.825C27.3926 28.125 29.0039 26.5625 29.7258 25.625C31.5047 23.3 32.5553 20.7562 32.9098 17.9375C33.0193 17.0125 33.0193 14.9875 32.9098 14.0625C32.5553 11.2437 31.5047 8.7 29.7258 6.375C29.0039 5.4375 27.3926 3.875 26.4258 3.175C24.0281 1.45 21.4049 0.43125 18.498 0.0874996C17.5764 -0.0187492 15.3527 -0.0125008 14.4375 0.09375ZM18.7881 2.7125C21.74 3.24375 24.2215 4.49375 26.2904 6.50625C28.0564 8.2125 29.2939 10.2812 29.9062 12.525C30.2736 13.8875 30.3252 14.2687 30.3252 16C30.3252 17.7312 30.2736 18.1125 29.9062 19.475C29.2939 21.7188 28.0564 23.7875 26.2904 25.4938C24.2086 27.5125 21.7594 28.75 18.7559 29.2938C17.8793 29.45 15.1207 29.45 14.2441 29.2938C11.2406 28.75 8.79141 27.5125 6.70957 25.4938C4.62773 23.475 3.35156 21.1 2.79082 18.1875C2.62969 17.3375 2.62969 14.6625 2.79082 13.8125C3.35156 10.9 4.62773 8.525 6.70957 6.50625C7.81172 5.43125 8.95898 4.625 10.3125 3.96875C11.8271 3.23125 13.0775 2.86875 15.0498 2.6C15.5396 2.53125 18.2338 2.6125 18.7881 2.7125Z" fill="white"/>
<path d="M10.0869 7.99376C8.75918 8.36876 7.72793 9.39376 7.38633 10.6688C7.32832 10.8813 7.2832 11.3063 7.2832 11.625C7.2832 11.9438 7.32832 12.3688 7.38633 12.5813C7.73438 13.8813 8.82363 14.9375 10.1643 15.275C10.667 15.4063 11.6338 15.4063 12.1365 15.275C13.4771 14.9375 14.5664 13.8813 14.9145 12.5813C15.0498 12.0938 15.0498 11.1563 14.9145 10.6688C14.5664 9.36876 13.4771 8.31251 12.1365 7.97501C11.608 7.84376 10.5896 7.85001 10.0869 7.99376ZM11.7691 10.5938C12.5748 11.0563 12.5748 12.1938 11.7691 12.6563C10.9506 13.1188 9.92578 12.55 9.92578 11.625C9.92578 10.7 10.9506 10.1313 11.7691 10.5938Z" fill="white"/>
<path d="M15.0176 15.95C12.736 20.05 10.8604 23.425 10.8475 23.45C10.8346 23.4812 11.4985 23.5 12.3235 23.5H13.8317L17.9824 16.0437C20.2641 11.95 22.1397 8.575 22.1526 8.54375C22.1654 8.51875 21.5016 8.5 20.6766 8.5H19.1684L15.0176 15.95Z" fill="white"/>
<path d="M20.7217 16.7438C19.3939 17.1188 18.3627 18.1437 18.0211 19.4187C17.9631 19.6312 17.918 20.0563 17.918 20.375C17.918 21.45 18.2789 22.3 19.0395 23.0375C19.8 23.775 20.6766 24.125 21.7852 24.125C22.8937 24.125 23.7703 23.775 24.5309 23.0375C25.2914 22.3 25.6523 21.45 25.6523 20.375C25.6523 19.3 25.2914 18.45 24.5309 17.7125C24.0281 17.225 23.4352 16.8875 22.7713 16.725C22.2428 16.5938 21.2244 16.6 20.7217 16.7438ZM22.4039 19.3438C23.4803 19.9562 23.0291 21.5625 21.7852 21.5625C20.8377 21.5625 20.2447 20.5687 20.7217 19.775C21.0633 19.2062 21.8238 19.0125 22.4039 19.3438Z" fill="white"/>
</g>
<defs>
<clipPath id="clip0_14_53">
<rect width="33" height="32" fill="white"/>
</clipPath>
</defs>
</svg>
