<svg width="30" height="30" viewBox="0 0 30 30" fill="none" xmlns="http://www.w3.org/2000/svg">
<g clip-path="url(#clip0_69_421)">
<path d="M6.16992 2.625L0.9375 5.24414V11.8652V18.4863L6.21094 21.123L11.4785 23.7598L12.2461 23.3789C12.6621 23.1738 13.0078 22.9863 13.0078 22.9687C13.0078 22.9512 12.9551 22.6523 12.8906 22.2949C12.8262 21.9434 12.7559 21.3984 12.7324 21.082C12.7148 20.7656 12.6738 20.5078 12.6504 20.5078C12.6211 20.5078 12.3457 20.6309 12.041 20.7832L11.4844 21.0645L7.38281 19.0137L3.28125 16.9629V12.4687C3.28125 9.99023 3.29297 7.96875 3.31055 7.96875C3.32812 7.96875 4.91016 8.75391 6.82617 9.70898L10.3125 11.4551V14.3379V17.2266H11.4844H12.6562V14.3379V11.4551L16.1426 9.70898C18.0586 8.75391 19.6406 7.96875 19.6582 7.96875C19.6758 7.96875 19.6875 8.8418 19.6875 9.9082C19.6875 11.7305 19.6934 11.8477 19.793 11.8125C19.8457 11.7891 20.373 11.584 20.959 11.3496L22.0312 10.9277V8.08594V5.24414L16.7871 2.61914C13.9043 1.17773 11.5078 -1.90735e-06 11.4668 0.00585747C11.4316 0.00585747 9.04102 1.18359 6.16992 2.625ZM14.8711 4.35351L18.1641 6.00586L14.8242 7.67578L11.4844 9.3457L8.14453 7.67578L4.80469 6.00586L8.09766 4.35351C9.91406 3.44531 11.4375 2.70117 11.4844 2.70117C11.5312 2.70117 13.0547 3.44531 14.8711 4.35351Z" fill="white"/>
<path d="M18.5156 14.7656L15.0293 16.1602V18.8438C15.0293 21.4102 15.041 21.5625 15.1641 22.1367C15.4746 23.5547 16.1426 25.0957 16.916 26.1914C17.4258 26.9062 18.6797 28.1602 19.3945 28.6699C19.9512 29.0625 21.3105 29.7832 21.7852 29.9355C21.9961 30.0059 22.0664 30.0059 22.2832 29.9355C22.752 29.7832 24.1113 29.0625 24.668 28.6699C25.3828 28.1602 26.6367 26.9062 27.1465 26.1914C27.9316 25.0781 28.5879 23.5547 28.8926 22.1191C29.0273 21.498 29.0332 21.3867 29.0332 18.8203V16.1602L25.6055 14.7891C23.7188 14.0332 22.1367 13.4062 22.0898 13.3887C22.043 13.377 20.4316 13.9922 18.5156 14.7656ZM24.4277 16.916L26.7363 17.8418L26.7012 19.3652C26.6777 20.3145 26.6309 21.0762 26.5781 21.3867C26.1328 23.877 24.7031 25.9043 22.5176 27.1582L22.0312 27.4336L21.5508 27.1582C19.3594 25.9043 17.9297 23.877 17.4844 21.3867C17.4316 21.0762 17.3848 20.3145 17.3613 19.3652L17.3262 17.8418L19.6055 16.9219C20.8594 16.418 21.9375 16.002 22.002 16.002C22.0664 15.9961 23.1562 16.4121 24.4277 16.916Z" fill="white"/>
</g>
<defs>
<clipPath id="clip0_69_421">
<rect width="30" height="30" fill="white"/>
</clipPath>
</defs>
</svg>
