<svg width="30" height="30" viewBox="0 0 30 30" fill="none" xmlns="http://www.w3.org/2000/svg">
<g clip-path="url(#clip0_69_409)">
<path d="M5.34194e-05 12.416C5.34194e-05 26.0098 -0.0233841 25.1777 0.345757 26.1973C1.04888 28.125 2.78912 29.5781 4.82818 29.9355C5.06255 29.9824 8.72466 30 16.0958 30H27.0118V28.8281C27.0118 27.498 27.0762 27.6445 26.4317 27.5684C25.1485 27.4219 23.9297 26.3145 23.584 24.9785C23.5137 24.7207 23.4961 24.2578 23.4961 22.957C23.4961 22.0312 23.4786 21.2695 23.4551 21.2695C23.4376 21.2695 23.1153 21.5684 22.7403 21.9316C22.3653 22.2949 21.8438 22.7637 21.5801 22.9688L21.0938 23.3379V24.0879C21.0938 25.2832 21.3516 26.25 21.9141 27.1875L22.1954 27.6621L13.7813 27.6445C4.41802 27.6211 5.15044 27.6562 4.2774 27.2285C3.75005 26.9707 3.02349 26.2441 2.76568 25.7051C2.37896 24.8965 2.4024 25.7695 2.4024 13.4941V2.34375H11.7481H21.0938V4.72852V7.11914L22.295 5.91797L23.4961 4.7168V2.36133V0H11.7481H5.34194e-05V12.416Z" fill="white"/>
<path d="M4.6875 5.39062V6.5625H11.748H18.8086V5.39062V4.21875H11.748H4.6875V5.39062Z" fill="white"/>
<path d="M20.1504 11.291C15.9141 15.5391 15.2637 16.2129 14.9473 16.6934C14.0859 18 13.582 19.3418 13.4121 20.7773L13.3418 21.3574L12.5449 22.1602L11.748 22.9688H8.2207H4.6875V24.1406V25.3125H8.77148H12.8613L13.9746 24.2051L15.0879 23.1035L15.668 23.0332C17.1211 22.8633 18.4277 22.3711 19.7461 21.498C20.2324 21.1816 20.9004 20.5371 25.166 16.2832L30.0293 11.4258L27.5391 8.93555C26.168 7.56445 25.0371 6.44531 25.0195 6.44531C25.002 6.44531 22.8105 8.625 20.1504 11.291ZM25.8398 10.6348L26.6309 11.4258L22.8809 15.1816C20.5898 17.4727 18.9375 19.0781 18.6328 19.3125C18.0586 19.7461 17.3262 20.1387 16.6992 20.3496C16.1074 20.543 15.8789 20.5898 15.8789 20.5137C15.8789 20.3789 16.1953 19.4531 16.3828 19.0488C16.8633 18.0059 16.9922 17.8594 21.1172 13.7227C23.2441 11.5898 25.002 9.84375 25.0195 9.84375C25.0371 9.84375 25.4062 10.2012 25.8398 10.6348Z" fill="white"/>
<path d="M4.6875 10.0781V11.25H9.4043H14.1211V10.0781V8.90625H9.4043H4.6875V10.0781Z" fill="white"/>
<path d="M4.6875 14.7656V15.9375H7.06055H9.43359V14.7656V13.5938H7.06055H4.6875V14.7656Z" fill="white"/>
<path d="M4.6875 19.4531V20.625H7.06055H9.43359V19.4531V18.2812H7.06055H4.6875V19.4531Z" fill="white"/>
</g>
<defs>
<clipPath id="clip0_69_409">
<rect width="30" height="30" fill="white"/>
</clipPath>
</defs>
</svg>
