<svg width="30" height="30" viewBox="0 0 30 30" fill="none" xmlns="http://www.w3.org/2000/svg">
<path d="M8.58398 1.23047C5.20312 1.90429 2.34375 2.46679 2.24414 2.49023L2.05078 2.52539V6.78515C2.05078 11.4551 2.10352 12.9785 2.28516 14.25C2.92383 18.6328 4.92188 22.541 8.12109 25.6641C9.11133 26.6309 9.82617 27.2051 10.9922 27.9844C12.1875 28.7812 14.6133 30 15 30C15.3867 30 17.8125 28.7812 19.0078 27.9844C20.1738 27.2051 20.8887 26.6309 21.8789 25.6641C25.084 22.5352 27.0703 18.6445 27.7148 14.2266C27.8965 12.9785 27.9492 11.4375 27.9492 6.79101V2.53125L27.8203 2.50195C27.041 2.31445 15.123 -1.90735e-06 14.959 0.00585747C14.8359 0.00585747 11.9707 0.562498 8.58398 1.23047ZM20.2441 3.45703C23.0508 4.00781 25.3887 4.4707 25.4531 4.49414C25.5586 4.52344 25.5586 4.6582 25.5293 8.60742C25.5 12.8145 25.4766 13.248 25.2246 14.5898C24.1934 20.0684 20.7188 24.6387 15.7266 27.0879L15 27.4395L14.2734 27.0879C9.42773 24.709 5.93555 20.2324 4.86914 15.0176C4.52344 13.3301 4.50586 13.0488 4.4707 8.5957C4.45312 6.35156 4.44727 4.51172 4.45898 4.51172C4.4707 4.50586 6.84375 4.03711 9.72656 3.46289C12.6094 2.88867 15.0117 2.42578 15.0586 2.4375C15.1055 2.44922 17.4434 2.90625 20.2441 3.45703Z" fill="white"/>
<path d="M16.9219 12.1699L13.8281 15.2637L11.8945 13.3301L9.96094 11.3965L9.09961 12.2637L8.23242 13.125L11.0332 15.9258L13.8281 18.7207L17.7949 14.7539L21.7676 10.7812L20.918 9.93164C20.4492 9.46289 20.0566 9.08203 20.0391 9.08203C20.0215 9.08203 18.6211 10.4707 16.9219 12.1699Z" fill="white"/>
</svg>
