<svg width="30" height="30" viewBox="0 0 30 30" fill="none" xmlns="http://www.w3.org/2000/svg">
<g clip-path="url(#clip0_69_426)">
<path d="M4.68751 0.0878868C2.54884 0.515621 0.773448 2.17382 0.164074 4.30664L0.029308 4.77539L0.0117299 15.8965C-0.00584826 28.2539 -0.0351451 27.3047 0.392589 28.1484C0.66798 28.6934 1.28321 29.3144 1.84571 29.6016C2.63673 30.0117 2.48439 30 7.34767 30H11.7188V28.8281V27.6621L7.48829 27.6445C3.48048 27.6269 3.24025 27.6211 3.04689 27.5156C2.75978 27.3633 2.64259 27.2519 2.4961 26.9824L2.37306 26.748L2.35548 16.8867L2.34376 7.03125H4.68751H7.03126V4.6875V2.33789L13.377 2.35546L19.7168 2.37304L19.9512 2.49609C20.2207 2.64257 20.332 2.75976 20.4844 3.04687C20.5899 3.23437 20.5957 3.43945 20.6133 5.66601L20.6309 8.08593H21.8027H22.9688V5.53125C22.9688 2.68945 22.9629 2.61328 22.5762 1.85156C22.2949 1.28906 21.6797 0.673824 21.1172 0.392574C20.291 -0.0234413 20.8125 -3.8147e-06 12.5332 0.00585556C6.63282 0.0117149 4.98634 0.0292931 4.68751 0.0878868ZM4.66993 4.66992C4.65821 4.68164 4.17774 4.68164 3.60939 4.67578L2.57228 4.6582L2.76564 4.27734C3.02345 3.76171 3.76173 3.02343 4.27735 2.76562L4.65821 2.57226L4.67579 3.60937C4.68165 4.17773 4.68165 4.6582 4.66993 4.66992Z" fill="white"/>
<path d="M4.6875 10.0781V11.25H10.4297H16.1719V10.0781V8.90625H10.4297H4.6875V10.0781Z" fill="white"/>
<path d="M20.625 10.1953C18.9727 10.623 17.6426 11.959 17.2266 13.6172C17.0273 14.4082 17.0625 14.9473 17.5781 18.9844C17.8359 21 18.0586 22.7168 18.0703 22.8047L18.1055 22.9688H17.3379C16.4531 22.9688 16.0664 23.0508 15.4453 23.3613C14.8828 23.6484 14.2676 24.2578 13.9805 24.832C13.6113 25.5703 13.5938 25.6934 13.5938 27.9609V30H21.7969H30V27.9727C30 25.7109 29.9824 25.5645 29.6074 24.8203C29.3262 24.2578 28.7109 23.6426 28.1484 23.3613C27.5273 23.0508 27.1406 22.9688 26.2559 22.9688H25.4941L25.5234 22.8047C25.5352 22.7168 25.7578 21 26.0156 18.9844C26.5312 14.9473 26.5664 14.4082 26.3672 13.6172C25.9453 11.9531 24.6094 10.6172 22.9453 10.1953C22.3184 10.0371 21.2461 10.0371 20.625 10.1953ZM22.752 12.6738C23.1914 12.873 23.6895 13.377 23.8887 13.8105C24.1641 14.4082 24.1465 14.6484 23.5898 18.9902C23.3145 21.1406 23.0859 22.9102 23.0859 22.9336C23.0859 22.9512 22.5059 22.9688 21.7969 22.9688C21.0879 22.9688 20.5078 22.9512 20.5078 22.9336C20.5078 22.916 20.2793 21.1406 20.0039 18.9961C19.4473 14.6602 19.4297 14.3965 19.6992 13.8281C19.9688 13.2422 20.4551 12.7969 21.0527 12.5859C21.5098 12.4219 22.3008 12.4629 22.752 12.6738ZM26.9824 25.4648C27.4863 25.7344 27.6094 26.0156 27.6445 26.9355L27.6738 27.6562H21.7969H15.9199L15.9492 26.9355C15.9902 25.8867 16.2246 25.5117 16.9336 25.3652C17.0449 25.3418 19.3008 25.3301 21.9434 25.3301C26.7363 25.3418 26.748 25.3418 26.9824 25.4648Z" fill="white"/>
<path d="M8.20312 16.0547C6.90234 16.3945 5.77148 17.3027 5.18555 18.4863C4.81641 19.2246 4.6875 19.7812 4.6875 20.625C4.6875 21.4805 4.81641 22.0312 5.19727 22.793C5.43164 23.2676 5.56055 23.4316 6.06445 23.9355C6.56836 24.4395 6.73242 24.5684 7.20703 24.8027C7.96875 25.1836 8.51953 25.3125 9.375 25.3125C10.2305 25.3125 10.7812 25.1836 11.543 24.8027C12.0176 24.5684 12.1816 24.4395 12.6855 23.9355C13.1895 23.4316 13.3184 23.2676 13.5527 22.793C13.9336 22.0312 14.0625 21.4805 14.0625 20.625C14.0625 19.7812 13.9336 19.2246 13.5703 18.4863C12.9785 17.2969 11.8359 16.3828 10.5234 16.0547C9.89648 15.8965 8.82422 15.8965 8.20312 16.0547ZM10.3301 18.5332C10.7637 18.7324 11.2676 19.2305 11.4727 19.6699C11.6133 19.9746 11.6309 20.0801 11.6309 20.625C11.6309 21.1699 11.6133 21.2754 11.4727 21.5801C11.2676 22.0137 10.7637 22.5176 10.3301 22.7227C10.0254 22.8633 9.91992 22.8809 9.375 22.8809C8.83008 22.8809 8.72461 22.8633 8.41992 22.7227C7.98633 22.5176 7.48242 22.0137 7.27734 21.5801C7.13672 21.2754 7.11914 21.1699 7.11914 20.625C7.11914 20.0801 7.13672 19.9746 7.27148 19.6875C7.55273 19.0957 8.0332 18.6562 8.63086 18.4453C9.08789 18.2812 9.87891 18.3223 10.3301 18.5332Z" fill="white"/>
</g>
<defs>
<clipPath id="clip0_69_426">
<rect width="30" height="30" fill="white"/>
</clipPath>
</defs>
</svg>
