<svg width="32" height="32" viewBox="0 0 32 32" fill="none" xmlns="http://www.w3.org/2000/svg">
<path d="M7.16875 5.9875C3.1875 9.96875 3.11875 10.0375 2.79375 10.1125C1.55 10.4 0.425 11.5187 0.1 12.7875C0.0125 13.1313 0 13.975 0 20.0125C0 25.975 0.0125 26.8937 0.09375 27.2188C0.4125 28.4375 1.3625 29.4437 2.59375 29.8625L3.09375 30.0312L16.55 30.05L30 30.0625V26.9375V23.8125H31H32V20.0312V16.25H31H30V13.125V10H28.425H26.8438L22.8 5.95625L18.75 1.90625L16.875 3.78125L15 5.65625L13.1375 3.79375C12.1188 2.775 11.2688 1.9375 11.25 1.9375C11.2312 1.9375 9.4 3.75625 7.16875 5.9875ZM13.4688 7.8125L15.6562 10H11.25H6.84375L9.03125 7.8125C10.2312 6.60625 11.2312 5.625 11.25 5.625C11.2688 5.625 12.2688 6.60625 13.4688 7.8125ZM20.9688 7.8125L23.1562 10H21.25H19.3438L18.0938 8.75L16.8438 7.5L17.7812 6.5625C18.2938 6.05 18.7313 5.625 18.75 5.625C18.7688 5.625 19.7688 6.60625 20.9688 7.8125ZM27.5 14.4062V16.25H26.625C25.575 16.25 25.25 16.3125 24.5688 16.6375C23.6313 17.0875 22.8625 18.025 22.6 19.0375C22.475 19.5312 22.4688 20.4875 22.5938 20.9688C22.825 21.8438 23.4312 22.675 24.2063 23.1875C24.8438 23.6062 25.425 23.7562 26.55 23.7937L27.5 23.8312V25.6625V27.5H15.6125C7.20625 27.5 3.64375 27.4813 3.46875 27.4312C3.125 27.3375 2.8375 27.1063 2.66875 26.7938L2.53125 26.5312V19.9937V13.4562L2.71875 13.1562C2.84375 12.9562 3 12.8062 3.18125 12.7062L3.45625 12.5625H15.4812H27.5V14.4062ZM29.5 20.0312V21.25H27.8625C26.1187 21.25 25.8563 21.2188 25.5125 20.9563C24.8375 20.45 24.9375 19.325 25.6938 18.95C25.9563 18.8187 26.05 18.8125 27.7375 18.8125H29.5V20.0312Z" fill="white"/>
</svg>
