<svg width="33" height="33" viewBox="0 0 33 33" fill="none" xmlns="http://www.w3.org/2000/svg">
<g clip-path="url(#clip0_69_392)">
<path d="M4.89844 1.28906V2.57812H2.44922H0V15.2109V27.8438H6.53555H13.0711L12.8842 27.2121C12.7811 26.8705 12.6521 26.2904 12.5877 25.9295L12.4781 25.2656H7.52812H2.57812V15.2109V5.15625H3.73828H4.89844V6.44531V7.73438H6.1875H7.47656V6.44531V5.15625H13.793H20.1094V6.44531V7.73438H21.3984H22.6875V6.44531V5.15625H23.9766H25.2656V8.81719V12.4781L25.9488 12.5941C26.3291 12.6586 26.9092 12.7875 27.2379 12.8842L27.8438 13.0646V7.82461V2.57812H25.2656H22.6875V1.28906V0H21.3984H20.1094V1.28906V2.57812H13.793H7.47656V1.28906V0H6.1875H4.89844V1.28906Z" fill="white"/>
<path d="M7.47656 11.0859V12.375H8.76562H10.0547V11.0859V9.79688H8.76562H7.47656V11.0859Z" fill="white"/>
<path d="M12.6328 11.0859V12.375H13.9219H15.2109V11.0859V9.79688H13.9219H12.6328V11.0859Z" fill="white"/>
<path d="M17.7891 11.0859V12.375H19.0781H20.3672V11.0859V9.79688H19.0781H17.7891V11.0859Z" fill="white"/>
<path d="M7.47656 16.2422V17.5312H8.76562H10.0547V16.2422V14.9531H8.76562H7.47656V16.2422Z" fill="white"/>
<path d="M12.6328 16.2422V17.5312H13.9219H15.2109V16.2422V14.9531H13.9219H12.6328V16.2422Z" fill="white"/>
<path d="M22.4297 15.0498C20.6443 15.3785 19.033 16.1906 17.7439 17.4217C16.9576 18.1758 16.4033 18.9234 15.9199 19.8645C15.2367 21.218 14.9531 22.4103 14.9531 23.9766C14.9531 25.5428 15.2367 26.7352 15.9199 28.0887C17.2219 30.641 19.626 32.407 22.4877 32.9033C23.2031 33.0322 24.7629 33.0258 25.4977 32.9033C26.3678 32.7551 27.2572 32.4521 28.0887 32.0332C30.641 30.7312 32.407 28.3271 32.9033 25.4654C33.0258 24.7629 33.0258 23.1902 32.9033 22.4877C32.6842 21.218 32.1879 19.9676 31.4789 18.8977C31.0148 18.208 30.1061 17.2541 29.3971 16.7191C28.3336 15.9199 26.8383 15.2818 25.4977 15.0498C24.7887 14.9273 23.1064 14.9273 22.4297 15.0498ZM24.7178 17.6215C25.6008 17.6924 26.7352 18.1113 27.5924 18.6978C28.1209 19.0523 28.9008 19.8322 29.2553 20.3607C29.6227 20.8957 29.99 21.6885 30.177 22.333C30.3059 22.7842 30.3252 22.9904 30.3252 23.9766C30.3252 25.2978 30.235 25.7168 29.7129 26.7803C28.7461 28.7719 26.7158 30.177 24.5566 30.3445C22.9195 30.4799 21.4049 30.0416 20.1287 29.0748C18.9879 28.2176 18.1887 27.0316 17.7762 25.6201C17.6473 25.1689 17.6279 24.9627 17.6279 23.9766C17.6279 22.9904 17.6473 22.7842 17.7762 22.333C18.0984 21.218 18.6592 20.2641 19.4584 19.4584C20.2705 18.6527 21.2502 18.0855 22.3266 17.7891C22.8164 17.6537 23.7768 17.5377 24.1055 17.5699C24.1957 17.5828 24.4729 17.6021 24.7178 17.6215Z" fill="white"/>
<path d="M22.6875 22.6875V25.2656H25.2656H27.8438V23.9766V22.6875H26.5547H25.2656V21.3984V20.1094H23.9766H22.6875V22.6875Z" fill="white"/>
<path d="M7.47656 21.3984V22.6875H8.76562H10.0547V21.3984V20.1094H8.76562H7.47656V21.3984Z" fill="white"/>
</g>
<defs>
<clipPath id="clip0_69_392">
<rect width="33" height="33" fill="white"/>
</clipPath>
</defs>
</svg>
