<svg width="35" height="36" viewBox="0 0 35 36" fill="none" xmlns="http://www.w3.org/2000/svg">
<g clip-path="url(#clip0_134_1468)">
<path fill-rule="evenodd" clip-rule="evenodd" d="M17.832 34.4921H19.3889H26.85L27.42 33.6821H20.1546H17.832V34.4921Z" fill="#4D5252"/>
<path fill-rule="evenodd" clip-rule="evenodd" d="M31.5291 3.9033L29.3001 0H19.3888H9.48608L4.53469 8.6855L2.48438 12.2786C3.03736 12.0804 3.62438 11.977 4.24543 11.977C6.66157 11.977 8.71189 13.6142 9.35846 15.8459L11.2131 12.5888L13.944 7.80661H19.3974H24.8507H33.7581L32.6351 5.85926L31.5291 3.9033Z" fill="#EA6229"/>
<path fill-rule="evenodd" clip-rule="evenodd" d="M26.9348 36C26.0756 36 25.3099 35.6209 24.7824 35.0177C24.6803 35.0177 20.3415 30.1494 20.0012 29.5634C19.8566 29.3049 19.7715 29.0034 19.7715 28.6759C19.7715 27.7022 20.5542 26.9095 21.5155 26.9095H32.2776L33.5112 24.7468H35L31.9968 30.0287L31.9798 30.0632L29.4956 34.4404C29.0107 35.3624 28.0493 36 26.9348 36ZM22.1791 28.6845C22.1791 28.314 21.8814 28.0124 21.5155 28.0124C21.1497 28.0124 20.8519 28.314 20.8519 28.6845C20.8519 29.0551 21.1497 29.3566 21.5155 29.3566C21.8814 29.3566 22.1791 29.0551 22.1791 28.6845Z" fill="#4D5252"/>
<path fill-rule="evenodd" clip-rule="evenodd" d="M6.78051 27.3317L5.63199 28.0038L4.52601 26.0651L1.38673 20.5591C0.535975 19.775 0 18.6376 0 17.3796C0 15.0101 1.89718 13.0799 4.24526 13.0799C6.58483 13.0799 8.48201 14.9928 8.49052 17.3624H8.49903L8.49052 17.3796L11.2214 22.1618L13.9524 26.944H19.3632C18.9888 27.4179 18.7676 28.0211 18.7676 28.6845C18.7676 29.1757 18.8952 29.6582 19.142 30.0804C19.3546 30.4509 19.78 30.9248 20.0608 31.2523C20.282 31.5194 20.5117 31.7779 20.7329 32.045H11.1193L6.15095 23.3595L5.13855 21.5845C4.8493 21.6448 4.55153 21.6793 4.24526 21.6793C3.99854 21.6793 3.75182 21.6534 3.52212 21.619L5.30019 24.7382L6.78051 27.3317ZM5.94677 17.3796C5.94677 16.4318 5.18109 15.6563 4.24526 15.6563C3.30943 15.6563 2.54375 16.4318 2.54375 17.3796C2.54375 18.3274 3.30943 19.1029 4.24526 19.1029C5.18109 19.1029 5.94677 18.3274 5.94677 17.3796Z" fill="#4D5252"/>
<path fill-rule="evenodd" clip-rule="evenodd" d="M10.7622 34.7592C10.5495 34.9832 10.2517 35.1211 9.92845 35.1211C9.28188 35.1211 8.76292 34.5955 8.76292 33.9406C8.76292 33.6821 8.84799 33.4409 8.98411 33.2513L6.20215 28.3743L6.80618 28.0124L9.54561 32.8205C9.66472 32.7774 9.79233 32.7516 9.92845 32.7516C10.3879 32.7516 10.7877 33.0187 10.9749 33.415H17.33V34.7506H10.7622V34.7592ZM10.3879 33.9406C10.3879 33.6821 10.1837 33.4753 9.92845 33.4753C9.67322 33.4753 9.46904 33.6821 9.46904 33.9406C9.46904 34.1991 9.67322 34.4059 9.92845 34.4059C10.1837 34.4059 10.3879 34.1991 10.3879 33.9406Z" fill="#EA6229"/>
<path fill-rule="evenodd" clip-rule="evenodd" d="M22.5793 24.8502H28.9854V21.9119H29.4363V24.8502H29.8957V21.9119H31.0187V24.8502H31.8099V21.9119H31.929C32.0822 21.9119 32.2183 21.7827 32.2183 21.619V21.2571C32.2183 21.102 32.0907 20.9641 31.929 20.9641H31.8099H31.0187H29.8957H29.4363H28.9854H22.5793H22.4602C22.307 20.9641 22.1709 21.0933 22.1709 21.2571V21.619C22.1709 21.7741 22.2985 21.9119 22.4602 21.9119H22.5793V24.8502ZM23.6767 12.5285H22.4687C22.3155 12.5285 22.1794 12.6577 22.1794 12.8214V13.1833C22.1794 13.3384 22.307 13.4763 22.4687 13.4763H22.5878V16.4146H28.9939V13.4763H29.4448V16.4146H29.9043V13.4763H31.0272V16.4146H31.8184V13.4763H31.9376C32.0907 13.4763 32.2268 13.3471 32.2268 13.1833V12.8214C32.2268 12.6663 32.0992 12.5285 31.9376 12.5285H24.9784V12.3475C24.9784 12.1924 24.8508 12.0546 24.6891 12.0546H23.9745C23.8214 12.0546 23.6852 12.1838 23.6852 12.3475V12.5285H23.6767ZM31.9205 17.6898C32.0737 17.6898 32.2098 17.5606 32.2098 17.3968V17.0349C32.2098 16.8798 32.0822 16.742 31.9205 16.742H31.8014H31.0102H29.8872H29.4363H28.9854H22.5793H22.4602C22.307 16.742 22.1709 16.8712 22.1709 17.0349V17.3968C22.1709 17.5519 22.2985 17.6898 22.4602 17.6898H22.5793V20.6281H28.9854V17.6898H29.4363V20.6281H29.8957V17.6898H31.0187V20.6281H31.8099V17.6898H31.9205ZM31.9205 26.1427C32.0737 26.1427 32.2098 26.0134 32.2098 25.8497V25.4878C32.2098 25.3327 32.0822 25.1948 31.9205 25.1948H22.4687C22.3155 25.1948 22.1794 25.3241 22.1794 25.4878V25.8497C22.1794 26.0048 22.307 26.1427 22.4687 26.1427H31.9205Z" fill="#4D5252"/>
</g>
<defs>
<clipPath id="clip0_134_1468">
<rect width="35" height="36" fill="white"/>
</clipPath>
</defs>
</svg>
