<svg width="240" height="65" viewBox="0 0 240 65" fill="none" xmlns="http://www.w3.org/2000/svg">
<g clip-path="url(#clip0_1_213)">
<path fill-rule="evenodd" clip-rule="evenodd" d="M32.3394 62.2774H35.1629H48.6943L49.728 60.815H36.5516H32.3394V62.2774Z" fill="#4D5252"/>
<path fill-rule="evenodd" clip-rule="evenodd" d="M57.1803 7.04763L53.1379 0H35.163H17.2035L8.22373 15.6821L4.50531 22.1697C5.5082 21.8119 6.57281 21.6252 7.69914 21.6252C12.081 21.6252 15.7994 24.5811 16.972 28.6106L20.3356 22.7298L25.2883 14.0953H35.1784H45.0685H61.2228L59.1861 10.5792L57.1803 7.04763Z" fill="#EA6229"/>
<path fill-rule="evenodd" clip-rule="evenodd" d="M48.8486 65C47.2903 65 45.9017 64.3155 44.9451 63.2265C44.7599 63.2265 36.8911 54.4364 36.2739 53.3784C36.0116 52.9117 35.8573 52.3672 35.8573 51.776C35.8573 50.018 37.2768 48.5867 39.0203 48.5867H58.5381L60.7753 44.6817H63.4754L58.0289 54.2186L57.9981 54.2808L53.4928 62.1841C52.6133 63.8488 50.8698 65 48.8486 65ZM40.2237 51.7916C40.2237 51.1226 39.6837 50.5781 39.0203 50.5781C38.3568 50.5781 37.8168 51.1226 37.8168 51.7916C37.8168 52.4605 38.3568 53.0051 39.0203 53.0051C39.6837 53.0051 40.2237 52.4605 40.2237 51.7916Z" fill="#4D5252"/>
<path fill-rule="evenodd" clip-rule="evenodd" d="M12.297 49.349L10.2141 50.5625L8.20829 47.062L2.51495 37.1206C0.972035 35.7049 0 33.6513 0 31.3799C0 27.1015 3.44069 23.6166 7.69913 23.6166C11.9421 23.6166 15.3828 27.0704 15.3983 31.3487H15.4137L15.3983 31.3799L20.351 40.0144L25.3038 48.6489H35.1167C34.4378 49.5046 34.0366 50.5936 34.0366 51.7915C34.0366 52.6783 34.2681 53.5496 34.7155 54.3119C35.1012 54.9809 35.8727 55.8365 36.3819 56.4277C36.783 56.91 37.1996 57.3767 37.6008 57.859H20.1659L11.1553 42.1769L9.31919 38.972C8.7946 39.0809 8.25458 39.1431 7.69913 39.1431C7.25169 39.1431 6.80424 39.0965 6.38766 39.0342L9.61234 44.6661L12.297 49.349ZM10.785 31.3799C10.785 29.6685 9.39633 28.2683 7.69913 28.2683C6.00193 28.2683 4.61331 29.6685 4.61331 31.3799C4.61331 33.0912 6.00193 34.4914 7.69913 34.4914C9.39633 34.4914 10.785 33.0912 10.785 31.3799Z" fill="#4D5252"/>
<path fill-rule="evenodd" clip-rule="evenodd" d="M19.5178 62.7597C19.1321 63.1642 18.5921 63.4131 18.0058 63.4131C16.8331 63.4131 15.892 62.4641 15.892 61.2817C15.892 60.815 16.0463 60.3793 16.2931 60.0371L11.2478 51.2314L12.3433 50.578L17.3114 59.2592C17.5275 59.1814 17.7589 59.1347 18.0058 59.1347C18.8389 59.1347 19.5641 59.617 19.9035 60.3327H31.4291V62.7441H19.5178V62.7597ZM18.8389 61.2817C18.8389 60.815 18.4686 60.4416 18.0058 60.4416C17.5429 60.4416 17.1726 60.815 17.1726 61.2817C17.1726 61.7484 17.5429 62.1218 18.0058 62.1218C18.4686 62.1218 18.8389 61.7484 18.8389 61.2817Z" fill="#EA6229"/>
<path fill-rule="evenodd" clip-rule="evenodd" d="M40.9489 44.8684H52.567V39.5632H53.3848V44.8684H54.218V39.5632H56.2546V44.8684H57.6895V39.5632H57.9055C58.1832 39.5632 58.4301 39.3298 58.4301 39.0342V38.3808C58.4301 38.1008 58.1987 37.8518 57.9055 37.8518H57.6895H56.2546H54.218H53.3848H52.567H40.9489H40.7329C40.4552 37.8518 40.2083 38.0852 40.2083 38.3808V39.0342C40.2083 39.3143 40.4398 39.5632 40.7329 39.5632H40.9489V44.8684ZM42.9393 22.6209H40.7483C40.4706 22.6209 40.2237 22.8542 40.2237 23.1498V23.8033C40.2237 24.0833 40.4552 24.3322 40.7483 24.3322H40.9643V29.6374H52.5825V24.3322H53.4002V29.6374H54.2334V24.3322H56.27V29.6374H57.7049V24.3322H57.9209C58.1987 24.3322 58.4455 24.0989 58.4455 23.8033V23.1498C58.4455 22.8698 58.2141 22.6209 57.9209 22.6209H45.2999V22.2942C45.2999 22.0141 45.0685 21.7652 44.7753 21.7652H43.4793C43.2016 21.7652 42.9547 21.9986 42.9547 22.2942V22.6209H42.9393ZM57.8901 31.9399C58.1678 31.9399 58.4147 31.7066 58.4147 31.411V30.7575C58.4147 30.4775 58.1832 30.2286 57.8901 30.2286H57.6741H56.2392H54.2025H53.3848H52.567H40.9489H40.7329C40.4552 30.2286 40.2083 30.4619 40.2083 30.7575V31.411C40.2083 31.691 40.4398 31.9399 40.7329 31.9399H40.9489V37.2451H52.567V31.9399H53.3848V37.2451H54.218V31.9399H56.2546V37.2451H57.6895V31.9399H57.8901ZM57.8901 47.202C58.1678 47.202 58.4147 46.9686 58.4147 46.673V46.0196C58.4147 45.7396 58.1832 45.4907 57.8901 45.4907H40.7483C40.4706 45.4907 40.2237 45.724 40.2237 46.0196V46.673C40.2237 46.9531 40.4552 47.202 40.7483 47.202H57.8901Z" fill="#4D5252"/>
<path d="M72.4089 34.2269C72.4089 29.7618 75.7724 26.7437 80.1852 26.7437C83.6567 26.7437 85.5082 28.7195 86.4494 30.6331L83.271 32.1577C82.7927 31.0065 81.5738 30.0574 80.2006 30.0574C77.8554 30.0574 76.2044 31.8777 76.2044 34.2425C76.2044 36.6072 77.8554 38.4275 80.2006 38.4275C81.5738 38.4275 82.8081 37.4785 83.271 36.3272L86.4494 37.8518C85.5236 39.7188 83.6567 41.7413 80.1852 41.7413C75.757 41.7101 72.4089 38.6764 72.4089 34.2269Z" fill="#4D5252"/>
<path d="M91.0164 41.4613V30.2442H86.9894V26.9926H98.7155V30.2442H94.7194V41.4613H91.0164Z" fill="#4D5252"/>
<path d="M100.274 41.4613V26.9926H107.464C110.689 26.9926 112.463 29.1862 112.463 31.8155C112.463 34.4136 110.704 36.6073 107.464 36.6073H103.977V41.4613H100.274ZM108.698 31.7999C108.698 30.8042 107.973 30.2442 106.97 30.2442H103.977V33.3401H106.97C107.958 33.3401 108.698 32.7801 108.698 31.7999Z" fill="#4D5252"/>
<path d="M113.173 34.2269C113.173 29.8241 116.459 26.7437 120.856 26.7437C125.254 26.7437 128.525 29.8241 128.525 34.2269C128.525 38.6297 125.254 41.7101 120.856 41.7101C116.459 41.7101 113.173 38.6297 113.173 34.2269ZM124.744 34.2269C124.744 31.8621 123.217 30.0419 120.856 30.0419C118.465 30.0419 116.937 31.8621 116.937 34.2269C116.937 36.5761 118.465 38.4119 120.856 38.4119C123.217 38.4119 124.744 36.5761 124.744 34.2269Z" fill="#4D5252"/>
<path d="M130.176 41.4612V26.9926H133.879V35.5182L139.695 26.9926H143.522V41.4612H139.788V32.5156L133.74 41.4612H130.176ZM136.841 26.3703C135.313 26.3703 133.94 25.6391 133.045 24.4567L134.465 23.2899C135.005 24.0211 135.792 24.55 136.825 24.55C137.813 24.55 138.631 24.0989 139.171 23.2899L140.59 24.4567C139.742 25.6391 138.384 26.3703 136.841 26.3703Z" fill="#4D5252"/>
<path d="M149.323 41.4613V29.6997H145.126V26.9926H156.575V29.6997H152.393V41.4613H149.323Z" fill="#4D5252"/>
<path d="M158.318 41.4613V26.9926H168.471V29.6997H161.373V32.7645H168.332V35.4716H161.373V38.7542H168.471V41.4613H158.318Z" fill="#4D5252"/>
<path d="M180.012 41.4613L176.417 36.1716L172.806 41.4613H169.165L174.38 34.0402L169.489 26.9926H173.13L176.417 31.94L179.672 26.9926H183.36L178.469 34.0247L183.684 41.4613H180.012Z" fill="#4D5252"/>
<path d="M184.27 34.2269C184.27 29.7774 187.556 26.7437 191.799 26.7437C194.7 26.7437 196.49 28.2683 197.57 29.9952L195.425 31.0998C194.731 29.9019 193.358 28.9995 191.815 28.9995C188.976 28.9995 186.862 31.1931 186.862 34.2269C186.862 37.2606 188.976 39.4543 191.815 39.4543C193.358 39.4543 194.746 38.5675 195.425 37.354L197.57 38.4586C196.474 40.201 194.7 41.7101 191.799 41.7101C187.572 41.7101 184.27 38.6764 184.27 34.2269Z" fill="#4D5252"/>
<path d="M209.373 41.4613V35.1448H201.906V41.4613H199.391V26.9926H201.906V32.9201H209.373V26.9926H211.888V41.4613H209.373Z" fill="#4D5252"/>
<path d="M224.771 41.4613L223.722 38.6764H217.134L216.085 41.4613H213.215L218.847 26.9926H221.994L227.626 41.4613H224.771ZM220.436 29.5441L217.859 36.4517H223.028L220.436 29.5441Z" fill="#4D5252"/>
<path d="M238.827 26.9771V29.2174H231.514V32.3911H235.31C238.303 32.3911 240 34.4759 240 36.934C240 39.3921 238.318 41.4768 235.31 41.4768H228.999V27.0082H238.827V26.9771ZM231.514 34.6159V39.2209H234.955C236.374 39.2209 237.408 38.303 237.408 36.9184C237.408 35.5338 236.374 34.6159 234.955 34.6159H231.514Z" fill="#4D5252"/>
</g>
<defs>
<clipPath id="clip0_1_213">
<rect width="240" height="65" fill="white"/>
</clipPath>
</defs>
</svg>
