<svg width="24" height="24" viewBox="0 0 24 24" fill="none" xmlns="http://www.w3.org/2000/svg">
<path d="M12 0C7.03594 0 3 4.03594 3 9C3 15.6375 11.3016 23.5312 11.6578 23.8641C11.7562 23.9531 11.8781 24 12 24C12.1219 24 12.2484 23.9531 12.3422 23.8641C12.6984 23.5312 21 15.6375 21 9C21 4.03594 16.9641 0 12 0ZM12 14.0016C9.24375 14.0016 6.99844 11.7563 6.99844 9C6.99844 6.24375 9.24375 3.99844 12 3.99844C14.7563 3.99844 17.0016 6.24375 17.0016 9C17.0016 11.7563 14.7563 14.0016 12 14.0016Z" fill="#EA6229"/>
</svg>
